<?xml version="1.0" encoding="UTF-8"?>
<svg xmlns="http://www.w3.org/2000/svg" viewBox="0 0 446 110" role="img" aria-label="github contribution style heatmap">
  <rect width="446" height="110" fill="#040b16"/>
  <rect x="8" y="8" width="10" height="10" rx="2.2" fill="#0f172a"/><rect x="8" y="22" width="10" height="10" rx="2.2" fill="#39d353"/><rect x="8" y="36" width="10" height="10" rx="2.2" fill="#26a641"/><rect x="8" y="50" width="10" height="10" rx="2.2" fill="#39d353"/><rect x="8" y="64" width="10" height="10" rx="2.2" fill="#26a641"/><rect x="8" y="78" width="10" height="10" rx="2.2" fill="#006d32"/><rect x="8" y="92" width="10" height="10" rx="2.2" fill="#0f172a"/><rect x="22" y="8" width="10" height="10" rx="2.2" fill="#0f172a"/><rect x="22" y="22" width="10" height="10" rx="2.2" fill="#39d353"/><rect x="22" y="36" width="10" height="10" rx="2.2" fill="#39d353"/><rect x="22" y="50" width="10" height="10" rx="2.2" fill="#39d353"/><rect x="22" y="64" width="10" height="10" rx="2.2" fill="#26a641"/><rect x="22" y="78" width="10" height="10" rx="2.2" fill="#006d32"/><rect x="22" y="92" width="10" height="10" rx="2.2" fill="#0f172a"/><rect x="36" y="8" width="10" height="10" rx="2.2" fill="#0f172a"/><rect x="36" y="22" width="10" height="10" rx="2.2" fill="#39d353"/><rect x="36" y="36" width="10" height="10" rx="2.2" fill="#39d353"/><rect x="36" y="50" width="10" height="10" rx="2.2" fill="#39d353"/><rect x="36" y="64" width="10" height="10" rx="2.2" fill="#26a641"/><rect x="36" y="78" width="10" height="10" rx="2.2" fill="#006d32"/><rect x="36" y="92" width="10" height="10" rx="2.2" fill="#0f172a"/><rect x="50" y="8" width="10" height="10" rx="2.2" fill="#0f172a"/><rect x="50" y="22" width="10" height="10" rx="2.2" fill="#39d353"/><rect x="50" y="36" width="10" height="10" rx="2.2" fill="#39d353"/><rect x="50" y="50" width="10" height="10" rx="2.2" fill="#39d353"/><rect x="50" y="64" width="10" height="10" rx="2.2" fill="#26a641"/><rect x="50" y="78" width="10" height="10" rx="2.2" fill="#006d32"/><rect x="50" y="92" width="10" height="10" rx="2.2" fill="#0f172a"/><rect x="64" y="8" width="10" height="10" rx="2.2" fill="#0f172a"/><rect x="64" y="22" width="10" height="10" rx="2.2" fill="#39d353"/><rect x="64" y="36" width="10" height="10" rx="2.2" fill="#39d353"/><rect x="64" y="50" width="10" height="10" rx="2.2" fill="#39d353"/><rect x="64" y="64" width="10" height="10" rx="2.2" fill="#26a641"/><rect x="64" y="78" width="10" height="10" rx="2.2" fill="#006d32"/><rect x="64" y="92" width="10" height="10" rx="2.2" fill="#0f172a"/><rect x="78" y="8" width="10" height="10" rx="2.2" fill="#0f172a"/><rect x="78" y="22" width="10" height="10" rx="2.2" fill="#39d353"/><rect x="78" y="36" width="10" height="10" rx="2.2" fill="#26a641"/><rect x="78" y="50" width="10" height="10" rx="2.2" fill="#26a641"/><rect x="78" y="64" width="10" height="10" rx="2.2" fill="#26a641"/><rect x="78" y="78" width="10" height="10" rx="2.2" fill="#006d32"/><rect x="78" y="92" width="10" height="10" rx="2.2" fill="#0f172a"/><rect x="92" y="8" width="10" height="10" rx="2.2" fill="#0f172a"/><rect x="92" y="22" width="10" height="10" rx="2.2" fill="#26a641"/><rect x="92" y="36" width="10" height="10" rx="2.2" fill="#26a641"/><rect x="92" y="50" width="10" height="10" rx="2.2" fill="#26a641"/><rect x="92" y="64" width="10" height="10" rx="2.2" fill="#006d32"/><rect x="92" y="78" width="10" height="10" rx="2.2" fill="#006d32"/><rect x="92" y="92" width="10" height="10" rx="2.2" fill="#0f172a"/><rect x="106" y="8" width="10" height="10" rx="2.2" fill="#0f172a"/><rect x="106" y="22" width="10" height="10" rx="2.2" fill="#0e4429"/><rect x="106" y="36" width="10" height="10" rx="2.2" fill="#0e4429"/><rect x="106" y="50" width="10" height="10" rx="2.2" fill="#0e4429"/><rect x="106" y="64" width="10" height="10" rx="2.2" fill="#0e4429"/><rect x="106" y="78" width="10" height="10" rx="2.2" fill="#0e4429"/><rect x="106" y="92" width="10" height="10" rx="2.2" fill="#0f172a"/><rect x="120" y="8" width="10" height="10" rx="2.2" fill="#0f172a"/><rect x="120" y="22" width="10" height="10" rx="2.2" fill="#006d32"/><rect x="120" y="36" width="10" height="10" rx="2.2" fill="#0e4429"/><rect x="120" y="50" width="10" height="10" rx="2.2" fill="#006d32"/><rect x="120" y="64" width="10" height="10" rx="2.2" fill="#006d32"/><rect x="120" y="78" width="10" height="10" rx="2.2" fill="#006d32"/><rect x="120" y="92" width="10" height="10" rx="2.2" fill="#0f172a"/><rect x="134" y="8" width="10" height="10" rx="2.2" fill="#0f172a"/><rect x="134" y="22" width="10" height="10" rx="2.2" fill="#0e4429"/><rect x="134" y="36" width="10" height="10" rx="2.2" fill="#0e4429"/><rect x="134" y="50" width="10" height="10" rx="2.2" fill="#0e4429"/><rect x="134" y="64" width="10" height="10" rx="2.2" fill="#0e4429"/><rect x="134" y="78" width="10" height="10" rx="2.2" fill="#0e4429"/><rect x="134" y="92" width="10" height="10" rx="2.2" fill="#0f172a"/><rect x="148" y="8" width="10" height="10" rx="2.2" fill="#0f172a"/><rect x="148" y="22" width="10" height="10" rx="2.2" fill="#0e4429"/><rect x="148" y="36" width="10" height="10" rx="2.2" fill="#0f172a"/><rect x="148" y="50" width="10" height="10" rx="2.2" fill="#0e4429"/><rect x="148" y="64" width="10" height="10" rx="2.2" fill="#0e4429"/><rect x="148" y="78" width="10" height="10" rx="2.2" fill="#0e4429"/><rect x="148" y="92" width="10" height="10" rx="2.2" fill="#0f172a"/><rect x="162" y="8" width="10" height="10" rx="2.2" fill="#0f172a"/><rect x="162" y="22" width="10" height="10" rx="2.2" fill="#0f172a"/><rect x="162" y="36" width="10" height="10" rx="2.2" fill="#0f172a"/><rect x="162" y="50" width="10" height="10" rx="2.2" fill="#0f172a"/><rect x="162" y="64" width="10" height="10" rx="2.2" fill="#0e4429"/><rect x="162" y="78" width="10" height="10" rx="2.2" fill="#0e4429"/><rect x="162" y="92" width="10" height="10" rx="2.2" fill="#0f172a"/><rect x="176" y="8" width="10" height="10" rx="2.2" fill="#0f172a"/><rect x="176" y="22" width="10" height="10" rx="2.2" fill="#0f172a"/><rect x="176" y="36" width="10" height="10" rx="2.2" fill="#0f172a"/><rect x="176" y="50" width="10" height="10" rx="2.2" fill="#0f172a"/><rect x="176" y="64" width="10" height="10" rx="2.2" fill="#0e4429"/><rect x="176" y="78" width="10" height="10" rx="2.2" fill="#0e4429"/><rect x="176" y="92" width="10" height="10" rx="2.2" fill="#0f172a"/><rect x="190" y="8" width="10" height="10" rx="2.2" fill="#0f172a"/><rect x="190" y="22" width="10" height="10" rx="2.2" fill="#0f172a"/><rect x="190" y="36" width="10" height="10" rx="2.2" fill="#0f172a"/><rect x="190" y="50" width="10" height="10" rx="2.2" fill="#0f172a"/><rect x="190" y="64" width="10" height="10" rx="2.2" fill="#0e4429"/><rect x="190" y="78" width="10" height="10" rx="2.2" fill="#0e4429"/><rect x="190" y="92" width="10" height="10" rx="2.2" fill="#0f172a"/><rect x="204" y="8" width="10" height="10" rx="2.2" fill="#0f172a"/><rect x="204" y="22" width="10" height="10" rx="2.2" fill="#0f172a"/><rect x="204" y="36" width="10" height="10" rx="2.2" fill="#0f172a"/><rect x="204" y="50" width="10" height="10" rx="2.2" fill="#0f172a"/><rect x="204" y="64" width="10" height="10" rx="2.2" fill="#0e4429"/><rect x="204" y="78" width="10" height="10" rx="2.2" fill="#0e4429"/><rect x="204" y="92" width="10" height="10" rx="2.2" fill="#0f172a"/><rect x="218" y="8" width="10" height="10" rx="2.2" fill="#0f172a"/><rect x="218" y="22" width="10" height="10" rx="2.2" fill="#0f172a"/><rect x="218" y="36" width="10" height="10" rx="2.2" fill="#0f172a"/><rect x="218" y="50" width="10" height="10" rx="2.2" fill="#0e4429"/><rect x="218" y="64" width="10" height="10" rx="2.2" fill="#0e4429"/><rect x="218" y="78" width="10" height="10" rx="2.2" fill="#006d32"/><rect x="218" y="92" width="10" height="10" rx="2.2" fill="#0f172a"/><rect x="232" y="8" width="10" height="10" rx="2.2" fill="#0f172a"/><rect x="232" y="22" width="10" height="10" rx="2.2" fill="#0f172a"/><rect x="232" y="36" width="10" height="10" rx="2.2" fill="#0f172a"/><rect x="232" y="50" width="10" height="10" rx="2.2" fill="#0e4429"/><rect x="232" y="64" width="10" height="10" rx="2.2" fill="#0e4429"/><rect x="232" y="78" width="10" height="10" rx="2.2" fill="#0e4429"/><rect x="232" y="92" width="10" height="10" rx="2.2" fill="#0f172a"/><rect x="246" y="8" width="10" height="10" rx="2.2" fill="#0f172a"/><rect x="246" y="22" width="10" height="10" rx="2.2" fill="#0e4429"/><rect x="246" y="36" width="10" height="10" rx="2.2" fill="#0e4429"/><rect x="246" y="50" width="10" height="10" rx="2.2" fill="#006d32"/><rect x="246" y="64" width="10" height="10" rx="2.2" fill="#006d32"/><rect x="246" y="78" width="10" height="10" rx="2.2" fill="#006d32"/><rect x="246" y="92" width="10" height="10" rx="2.2" fill="#0f172a"/><rect x="260" y="8" width="10" height="10" rx="2.2" fill="#0f172a"/><rect x="260" y="22" width="10" height="10" rx="2.2" fill="#006d32"/><rect x="260" y="36" width="10" height="10" rx="2.2" fill="#006d32"/><rect x="260" y="50" width="10" height="10" rx="2.2" fill="#006d32"/><rect x="260" y="64" width="10" height="10" rx="2.2" fill="#006d32"/><rect x="260" y="78" width="10" height="10" rx="2.2" fill="#006d32"/><rect x="260" y="92" width="10" height="10" rx="2.2" fill="#0f172a"/><rect x="274" y="8" width="10" height="10" rx="2.2" fill="#0f172a"/><rect x="274" y="22" width="10" height="10" rx="2.2" fill="#006d32"/><rect x="274" y="36" width="10" height="10" rx="2.2" fill="#006d32"/><rect x="274" y="50" width="10" height="10" rx="2.2" fill="#26a641"/><rect x="274" y="64" width="10" height="10" rx="2.2" fill="#26a641"/><rect x="274" y="78" width="10" height="10" rx="2.2" fill="#006d32"/><rect x="274" y="92" width="10" height="10" rx="2.2" fill="#0f172a"/><rect x="288" y="8" width="10" height="10" rx="2.2" fill="#0f172a"/><rect x="288" y="22" width="10" height="10" rx="2.2" fill="#006d32"/><rect x="288" y="36" width="10" height="10" rx="2.2" fill="#006d32"/><rect x="288" y="50" width="10" height="10" rx="2.2" fill="#26a641"/><rect x="288" y="64" width="10" height="10" rx="2.2" fill="#26a641"/><rect x="288" y="78" width="10" height="10" rx="2.2" fill="#006d32"/><rect x="288" y="92" width="10" height="10" rx="2.2" fill="#0f172a"/><rect x="302" y="8" width="10" height="10" rx="2.2" fill="#0f172a"/><rect x="302" y="22" width="10" height="10" rx="2.2" fill="#26a641"/><rect x="302" y="36" width="10" height="10" rx="2.2" fill="#26a641"/><rect x="302" y="50" width="10" height="10" rx="2.2" fill="#26a641"/><rect x="302" y="64" width="10" height="10" rx="2.2" fill="#26a641"/><rect x="302" y="78" width="10" height="10" rx="2.2" fill="#006d32"/><rect x="302" y="92" width="10" height="10" rx="2.2" fill="#0f172a"/><rect x="316" y="8" width="10" height="10" rx="2.2" fill="#0f172a"/><rect x="316" y="22" width="10" height="10" rx="2.2" fill="#26a641"/><rect x="316" y="36" width="10" height="10" rx="2.2" fill="#26a641"/><rect x="316" y="50" width="10" height="10" rx="2.2" fill="#26a641"/><rect x="316" y="64" width="10" height="10" rx="2.2" fill="#26a641"/><rect x="316" y="78" width="10" height="10" rx="2.2" fill="#006d32"/><rect x="316" y="92" width="10" height="10" rx="2.2" fill="#0f172a"/><rect x="330" y="8" width="10" height="10" rx="2.2" fill="#0f172a"/><rect x="330" y="22" width="10" height="10" rx="2.2" fill="#26a641"/><rect x="330" y="36" width="10" height="10" rx="2.2" fill="#26a641"/><rect x="330" y="50" width="10" height="10" rx="2.2" fill="#26a641"/><rect x="330" y="64" width="10" height="10" rx="2.2" fill="#006d32"/><rect x="330" y="78" width="10" height="10" rx="2.2" fill="#0e4429"/><rect x="330" y="92" width="10" height="10" rx="2.2" fill="#0f172a"/><rect x="344" y="8" width="10" height="10" rx="2.2" fill="#0f172a"/><rect x="344" y="22" width="10" height="10" rx="2.2" fill="#0e4429"/><rect x="344" y="36" width="10" height="10" rx="2.2" fill="#0e4429"/><rect x="344" y="50" width="10" height="10" rx="2.2" fill="#0e4429"/><rect x="344" y="64" width="10" height="10" rx="2.2" fill="#0e4429"/><rect x="344" y="78" width="10" height="10" rx="2.2" fill="#0f172a"/><rect x="344" y="92" width="10" height="10" rx="2.2" fill="#0f172a"/><rect x="358" y="8" width="10" height="10" rx="2.2" fill="#0f172a"/><rect x="358" y="22" width="10" height="10" rx="2.2" fill="#26a641"/><rect x="358" y="36" width="10" height="10" rx="2.2" fill="#006d32"/><rect x="358" y="50" width="10" height="10" rx="2.2" fill="#26a641"/><rect x="358" y="64" width="10" height="10" rx="2.2" fill="#006d32"/><rect x="358" y="78" width="10" height="10" rx="2.2" fill="#0e4429"/><rect x="358" y="92" width="10" height="10" rx="2.2" fill="#0f172a"/><rect x="372" y="8" width="10" height="10" rx="2.2" fill="#0f172a"/><rect x="372" y="22" width="10" height="10" rx="2.2" fill="#26a641"/><rect x="372" y="36" width="10" height="10" rx="2.2" fill="#006d32"/><rect x="372" y="50" width="10" height="10" rx="2.2" fill="#006d32"/><rect x="372" y="64" width="10" height="10" rx="2.2" fill="#006d32"/><rect x="372" y="78" width="10" height="10" rx="2.2" fill="#0e4429"/><rect x="372" y="92" width="10" height="10" rx="2.2" fill="#0f172a"/><rect x="386" y="8" width="10" height="10" rx="2.2" fill="#0f172a"/><rect x="386" y="22" width="10" height="10" rx="2.2" fill="#006d32"/><rect x="386" y="36" width="10" height="10" rx="2.2" fill="#006d32"/><rect x="386" y="50" width="10" height="10" rx="2.2" fill="#006d32"/><rect x="386" y="64" width="10" height="10" rx="2.2" fill="#0e4429"/><rect x="386" y="78" width="10" height="10" rx="2.2" fill="#0e4429"/><rect x="386" y="92" width="10" height="10" rx="2.2" fill="#0f172a"/><rect x="400" y="8" width="10" height="10" rx="2.2" fill="#0f172a"/><rect x="400" y="22" width="10" height="10" rx="2.2" fill="#006d32"/><rect x="400" y="36" width="10" height="10" rx="2.2" fill="#006d32"/><rect x="400" y="50" width="10" height="10" rx="2.2" fill="#006d32"/><rect x="400" y="64" width="10" height="10" rx="2.2" fill="#0e4429"/><rect x="400" y="78" width="10" height="10" rx="2.2" fill="#0e4429"/><rect x="400" y="92" width="10" height="10" rx="2.2" fill="#0f172a"/><rect x="414" y="8" width="10" height="10" rx="2.2" fill="#0f172a"/><rect x="414" y="22" width="10" height="10" rx="2.2" fill="#006d32"/><rect x="414" y="36" width="10" height="10" rx="2.2" fill="#006d32"/><rect x="414" y="50" width="10" height="10" rx="2.2" fill="#006d32"/><rect x="414" y="64" width="10" height="10" rx="2.2" fill="#0e4429"/><rect x="414" y="78" width="10" height="10" rx="2.2" fill="#0e4429"/><rect x="414" y="92" width="10" height="10" rx="2.2" fill="#0f172a"/><rect x="428" y="8" width="10" height="10" rx="2.2" fill="#0f172a"/><rect x="428" y="22" width="10" height="10" rx="2.2" fill="#26a641"/><rect x="428" y="36" width="10" height="10" rx="2.2" fill="#006d32"/><rect x="428" y="50" width="10" height="10" rx="2.2" fill="#006d32"/><rect x="428" y="64" width="10" height="10" rx="2.2" fill="#006d32"/><rect x="428" y="78" width="10" height="10" rx="2.2" fill="#0e4429"/><rect x="428" y="92" width="10" height="10" rx="2.2" fill="#0f172a"/>
</svg>
